Coordinates
version=1
nRows=17
nColumns=24
inDegrees=yes

Units are S.I. units (second, meters, Newtons, ...)
Angles are in degrees.

endheader
time	pelvis_tilt	pelvis_list	pelvis_rotation	pelvis_tx	pelvis_ty	pelvis_tz	hip_flexion_r	hip_adduction_r	hip_rotation_r	knee_angle_r	ankle_angle_r	subtalar_angle_r	mtp_angle_r	hip_flexion_l	hip_adduction_l	hip_rotation_l	knee_angle_l	ankle_angle_l	subtalar_angle_l	mtp_angle_l	lumbar_extension	lumbar_bending	lumbar_rotation
      4.29500000	      0.55078478	      7.83424721	     -2.31460942	     -0.43797892	      0.93424783	      0.21690404	     23.57527015	     -6.77968845	      2.13274371	    -69.48120158	     12.88299096	     -6.81710381	      0.00000000	     13.51129144	     14.34978061	      1.46334328	    -23.83910172	     18.14515348	    -13.29410536	      0.00000000	    -11.17559212	    -10.87710164	     -6.84154544
      4.30000000	      0.60977007	      7.61475070	     -2.10524981	     -0.43135241	      0.93564427	      0.21635169	     23.97526223	     -6.47308857	      2.13118965	    -68.43230065	     13.21460833	     -7.13527922	      0.00000000	     12.63541931	     14.24993938	      2.05357725	    -23.30002494	     18.19337295	    -13.48703973	      0.00000000	    -11.31068254	    -10.53812517	     -7.04832896
      4.30500000	      0.65341953	      7.38683413	     -1.88856505	     -0.42474310	      0.93696833	      0.21578274	     24.36045261	     -6.16940977	      2.11390173	    -67.29823508	     13.45994272	     -7.49530915	      0.00000000	     11.78069000	     14.13196829	      2.63849031	    -22.76215482	     18.22882164	    -13.69526494	      0.00000000	    -11.42849809	    -10.18521893	     -7.26347110
      4.31000000	      0.68735837	      7.15921131	     -1.66344364	     -0.41816880	      0.93821571	      0.21521911	     24.72277452	     -5.87315302	      2.08905897	    -66.07871983	     13.64897038	     -7.88690902	      0.00000000	     10.94516668	     14.00507166	      3.22734915	    -22.23061014	     18.25134190	    -13.91425793	      0.00000000	    -11.54038662	     -9.83738990	     -7.48107567
      4.31500000	      0.70368588	      6.92837343	     -1.43894089	     -0.41159426	      0.93936579	      0.21462175	     25.07569916	     -5.58993774	      2.04840483	    -64.78165755	     13.76427347	     -8.30923416	      0.00000000	     10.13421066	     13.86592903	      3.79131459	    -21.69931678	     18.27422751	    -14.14795022	      0.00000000	    -11.62399340	     -9.47162134	     -7.69621027
      4.32000000	      0.72621605	      6.70345165	     -1.19638864	     -0.40506559	      0.94046497	      0.21407328	     25.38335771	     -5.31519065	      2.00890391	    -63.40059199	     13.84147408	     -8.73624564	      0.00000000	      9.32198960	     13.72310942	      4.39160103	    -21.17161778	     18.27089631	    -14.39314031	      0.00000000	    -11.72857382	     -9.13455189	     -7.93879149
      4.32500000	      0.72273017	      6.47782645	     -0.95859173	     -0.39853340	      0.94145112	      0.21351389	     25.68910959	     -5.05073432	      1.96182180	    -61.94200720	     13.85609961	     -9.19138044	      0.00000000	      8.54645675	     13.56807153	      4.95290819	    -20.64717887	     18.26996497	    -14.64312696	      0.00000000	    -11.79420870	     -8.78599066	     -8.16998473
      4.33000000	      0.71542022	      6.25743249	     -0.71303358	     -0.39201705	      0.94235215	      0.21294421	     25.96506621	     -4.80608657	      1.90411175	    -60.40606460	     13.83253311	     -9.64796919	      0.00000000	      7.78123296	     13.41146364	      5.51361873	    -20.12450376	     18.26296210	    -14.90695261	      0.00000000	    -11.85453107	     -8.44323885	     -8.41096482
      4.33500000	      0.70458103	      6.04436322	     -0.46355405	     -0.38550474	      0.94316719	      0.21237269	     26.20939545	     -4.58093710	      1.84229987	    -58.79353620	     13.78285816	    -10.09349450	      0.00000000	      7.02450262	     13.25518243	      6.07501454	    -19.60266159	     18.24631039	    -15.18795989	      0.00000000	    -11.90966013	     -8.10729116	     -8.65807379
      4.34000000	      0.64575346	      5.82718266	     -0.22582501	     -0.37898691	      0.94382240	      0.21182261	     26.47677027	     -4.36185042	      1.76579583	    -57.10793668	     13.69241676	    -10.54249067	      0.00000000	      6.33614706	     13.08093405	      6.55888478	    -19.09409391	     18.25559464	    -15.45646413	      0.00000000	    -11.89817607	     -7.77291949	     -8.84059565
      4.34500000	      0.67221693	      5.63742848	      0.04976605	     -0.37250376	      0.94452420	      0.21124111	     26.60166998	     -4.18907459	      1.69241285	    -55.34102163	     13.62191599	    -10.93012322	      0.00000000	      5.54475321	     12.94174389	      7.19144872	    -18.57246250	     18.18731173	    -15.82256298	      0.00000000	    -12.00695516	     -7.46494290	     -9.16406116
      4.35000000	      0.62447935	      5.45856789	      0.30453111	     -0.36602487	      0.94503888	      0.21069705	     26.78862737	     -4.02824707	      1.62483536	    -53.51382494	     13.45151407	    -11.35973474	      0.00000000	      4.85003153	     12.79635293	      7.72918402	    -18.06183224	     18.14963546	    -16.12599341	      0.00000000	    -12.01708434	     -7.17341175	     -9.42388904
      4.35500000	      0.59300528	      5.28385305	      0.56794652	     -0.35953299	      0.94548187	      0.21013073	     26.91401130	     -3.89249778	      1.53452115	    -51.60782565	     13.30140239	    -11.73512480	      0.00000000	      4.14480862	     12.65427333	      8.28288141	    -17.56272061	     18.09726576	    -16.48860173	      0.00000000	    -12.04376481	     -6.88403867	     -9.69190270
      4.36000000	      0.49639944	      5.10902561	      0.81564335	     -0.35303815	      0.94574334	      0.20963616	     27.08450696	     -3.76150877	      1.42677429	    -49.63912509	     13.08946205	    -12.11182557	      0.00000000	      3.53023499	     12.49643402	      8.75079649	    -17.08582899	     18.09245582	    -16.79253280	      0.00000000	    -11.98967608	     -6.61578661	     -9.88211279
      4.36500000	      0.51441496	      4.97532585	      1.10031445	     -0.34655775	      0.94608506	      0.20902574	     27.08046752	     -3.70002796	      1.32013040	    -47.59953394	     12.92422580	    -12.38626146	      0.00000000	      2.77509928	     12.39401799	      9.37777385	    -16.58680597	     17.97244184	    -17.26716921	      0.00000000	    -12.08468138	     -6.36189918	    -10.22804808
      4.37000000	      0.39395025	      4.83815955	      1.34127636	     -0.34005526	      0.94613248	      0.20852538	     27.21412747	     -3.63005764	      1.19931360	    -45.51246749	     12.65555111	    -12.69618533	      0.00000000	      2.20621222	     12.26648461	      9.81955742	    -16.13775911	     17.97206200	    -17.56150894	      0.00000000	    -11.99798360	     -6.13112831	    -10.41660514
      4.37500000	      0.38425507	      4.73634380	      1.62400244	     -0.33357099	      0.94627030	      0.20795828	     27.18132566	     -3.62310148	      1.05836484	    -43.36576917	     12.40691877	    -12.90556773	      0.00000000	      1.49638325	     12.17832866	     10.40490796	    -15.65718286	     17.86319978	    -18.00539837	      0.00000000	    -12.06086468	     -5.92466515	    -10.75930193
